<?xml version="1.0" encoding="UTF-8" standalone="no"?>
<!-- Created with Inkscape (http://www.inkscape.org/) -->

<svg
   width="1331.3767"
   height="417.45157"
   viewBox="0 0 352.26008 110.45073"
   version="1.1"
   id="svg5"
   inkscape:version="1.1.2 (b8e25be833, 2022-02-05)"
   sodipodi:docname="bg-letra.svg"
   xmlns:inkscape="http://www.inkscape.org/namespaces/inkscape"
   xmlns:sodipodi="http://sodipodi.sourceforge.net/DTD/sodipodi-0.dtd"
   xmlns:xlink="http://www.w3.org/1999/xlink"
   xmlns="http://www.w3.org/2000/svg"
   xmlns:svg="http://www.w3.org/2000/svg">
  <sodipodi:namedview
     id="namedview7"
     pagecolor="#ffffff"
     bordercolor="#666666"
     borderopacity="1.0"
     inkscape:pageshadow="2"
     inkscape:pageopacity="0.0"
     inkscape:pagecheckerboard="0"
     inkscape:document-units="px"
     showgrid="false"
     inkscape:zoom="0.64052329"
     inkscape:cx="576.87208"
     inkscape:cy="221.69373"
     inkscape:window-width="1280"
     inkscape:window-height="961"
     inkscape:window-x="-8"
     inkscape:window-y="-8"
     inkscape:window-maximized="1"
     inkscape:current-layer="layer1"
     showborder="true"
     fit-margin-top="0"
     fit-margin-left="0"
     fit-margin-right="0"
     fit-margin-bottom="0"
     units="px" />
  <defs
     id="defs2">
    <linearGradient
       inkscape:collect="always"
       id="linearGradient7669">
      <stop
         style="stop-color:#e15f16;stop-opacity:1"
         offset="0"
         id="stop7665" />
      <stop
         style="stop-color:#d71ebd;stop-opacity:0.92771077"
         offset="1"
         id="stop7667" />
    </linearGradient>
    <linearGradient
       inkscape:collect="always"
       xlink:href="#linearGradient7669"
       id="linearGradient13624"
       x1="189.77394"
       y1="82.352371"
       x2="191.10413"
       y2="107.36594"
       gradientUnits="userSpaceOnUse" />
    <filter
       inkscape:collect="always"
       style="color-interpolation-filters:sRGB"
       id="filter14003"
       x="-0.0010570831"
       y="-0.00095698323"
       width="1.0021142"
       height="1.001914">
      <feGaussianBlur
         inkscape:collect="always"
         stdDeviation="0.010401262"
         id="feGaussianBlur14005" />
    </filter>
    <filter
       inkscape:collect="always"
       style="color-interpolation-filters:sRGB"
       id="filter30976"
       x="-0.00019999386"
       y="-0.00067139027"
       width="1.0004"
       height="1.0013428">
      <feGaussianBlur
         inkscape:collect="always"
         stdDeviation="0.048409162"
         id="feGaussianBlur30978" />
    </filter>
    <linearGradient
       inkscape:collect="always"
       xlink:href="#linearGradient7669"
       id="linearGradient32259"
       gradientUnits="userSpaceOnUse"
       gradientTransform="translate(-5.3699583,-1.2392201)"
       x1="54.886131"
       y1="62.699295"
       x2="54.885918"
       y2="86.919136" />
    <filter
       inkscape:label="Black Hole"
       inkscape:menu="Morphology"
       inkscape:menu-tooltip="Creates a black light inside and outside"
       style="color-interpolation-filters:sRGB;"
       id="filter32794"
       x="-0.22679956"
       y="-0.20240903"
       width="1.4772241"
       height="1.4259023">
      <feColorMatrix
         values="1 0 0 0 0 0 1 0 0 0 0 0 1 0 0 0 0 0 1 0 "
         result="fbSourceGraphic"
         id="feColorMatrix32778" />
      <feGaussianBlur
         stdDeviation="3"
         result="result1"
         id="feGaussianBlur32780" />
      <feOffset
         dx="2"
         dy="2"
         result="result6"
         id="feOffset32782" />
      <feComposite
         k2="2"
         operator="in"
         result="result2"
         in="result6"
         in2="result1"
         id="feComposite32784" />
      <feColorMatrix
         values="110"
         result="result3"
         type="hueRotate"
         id="feColorMatrix32786" />
      <feBlend
         mode="screen"
         in="result2"
         in2="result3"
         result="result4"
         id="feBlend32788" />
      <feConvolveMatrix
         order="3 3"
         kernelMatrix="-2 0 2 0 4 0 2 0 2"
         divisor="2"
         bias="0"
         targetX="0"
         in="result4"
         result="result5"
         id="feConvolveMatrix32790" />
      <feComposite
         operator="atop"
         in="result2"
         in2="result5"
         id="feComposite32792"
         result="fbSourceGraphic" />
      <feColorMatrix
         result="fbSourceGraphicAlpha"
         in="fbSourceGraphic"
         values="0 0 0 -1 0 0 0 0 -1 0 0 0 0 -1 0 0 0 0 1 0"
         id="feColorMatrix32814" />
      <feGaussianBlur
         id="feGaussianBlur32816"
         stdDeviation="5"
         in="fbSourceGraphicAlpha"
         result="result1" />
      <feComposite
         in2="result1"
         id="feComposite32818"
         operator="arithmetic"
         k2="3.2"
         k1="-1"
         k4="-2"
         result="result3" />
      <feColorMatrix
         id="feColorMatrix32820"
         values="1 0 0 0 0 0 1 0 0 0 0 0 1 0 0 0 0 0 10 0 "
         result="result2" />
      <feComposite
         in2="result2"
         id="feComposite32822"
         result="fbSourceGraphic"
         in="fbSourceGraphic"
         operator="out" />
      <feBlend
         in2="fbSourceGraphic"
         id="feBlend32824"
         mode="multiply"
         in="result1"
         result="result91" />
      <feBlend
         in2="result91"
         id="feBlend32826"
         mode="screen"
         in="fbSourceGraphic" />
    </filter>
    <radialGradient
       inkscape:collect="always"
       xlink:href="#linearGradient7669"
       id="radialGradient50878"
       cx="1016.1416"
       cy="322.17773"
       fx="1016.1416"
       fy="322.17773"
       r="294.41666"
       gradientTransform="matrix(1,0,0,0.30730657,0,223.1704)"
       gradientUnits="userSpaceOnUse" />
  </defs>
  <g
     inkscape:label="Capa 1"
     inkscape:groupmode="layer"
     id="layer1"
     transform="translate(0.97268783,-56.743198)">
    <path
       id="path31982"
       style="font-size:30.1484px;line-height:1.25;fill:url(#linearGradient32259);fill-opacity:1;stroke-width:0.264583"
       d="M 67.895716,57.22842 V 82.817039 H 87.035632 V 79.792417 H 71.75853 V 70.289121 H 87.035632 V 67.264499 H 71.75853 V 60.252524 H 87.035632 V 57.22842 Z m 0,25.588619 H 53.379288 V 61.460203 H 49.515959 V 85.679912 H 67.895716 Z M 23.362516,58.012868 V 82.232061 H 42.502434 V 79.369703 H 27.225848 V 70.374387 H 42.502434 V 67.51203 H 27.225848 v -6.636288 c 10.93565,-0.974278 10.854026,-0.111681 15.276586,0 v -2.862874 z m 84.143184,8.855273 c -2.13319,0 -4.07777,0.276372 -5.83375,0.829407 -1.742982,0.553032 -3.232247,1.35524 -4.467947,2.407088 -1.274699,1.084376 -2.250043,2.412937 -2.926434,3.985286 -0.676378,1.572348 -1.014926,3.356357 -1.014926,5.351612 0,2.103694 0.351282,3.952397 1.053682,5.546432 0.702395,1.58319 1.678241,2.890015 2.926953,3.920172 1.274699,1.051846 2.770102,1.827144 4.487062,2.325958 1.72997,0.487968 3.64854,0.731737 5.75572,0.731737 1.11863,0 2.13987,-0.07608 3.06338,-0.227891 0.93652,-0.14097 1.80174,-0.314352 2.59519,-0.520383 0.93652,-0.249409 1.69059,-0.487997 2.26291,-0.715719 0.58533,-0.227713 1.23591,-0.471485 1.9513,-0.731737 v -3.773932 h -0.27336 c -1.41779,1.062689 -2.93972,1.859725 -4.56562,2.391069 -1.62592,0.531347 -3.36857,0.797369 -5.22862,0.797369 -1.35274,0 -2.64063,-0.189944 -3.86333,-0.569476 -1.20967,-0.390374 -2.26965,-0.986596 -3.18016,-1.789038 -0.871494,-0.769906 -1.586827,-1.76775 -2.146127,-2.993099 -0.546309,-1.225346 -0.819589,-2.68899 -0.819589,-4.391462 0,-1.626566 0.247288,-3.05812 0.741559,-4.294312 0.507288,-1.247034 1.209346,-2.276966 2.106847,-3.09025 0.92351,-0.834972 1.97075,-1.447754 3.14141,-1.838131 1.18367,-0.401217 2.51029,-0.60203 3.98012,-0.60203 1.795,0 3.47955,0.254635 5.05344,0.764294 1.57388,0.509656 3.16105,1.323252 4.76095,2.440161 h 0.29248 V 68.99876 c -1.89906,-0.791596 -3.62898,-1.344859 -5.18986,-1.65933 -1.54786,-0.314468 -3.1024,-0.471289 -4.66328,-0.471289 z M 6.7289073,72.130352 c -3.1607683,0 -5.76866085,0.650566 -7.8238119,1.951819 -2.0551507,1.29041 -3.0830158,2.949686 -3.0830158,4.977474 0,1.767533 0.6179422,3.204266 1.8536336,4.31033 1.2486984,1.095222 3.16064052,1.87052 5.7360841,2.325958 1.2747117,0.216876 2.4779647,0.39543 3.6095987,0.5364 1.1446401,0.14097 2.2046223,0.320043 3.180168,0.536919 1.287721,0.28194 2.243691,0.677868 2.868042,1.187524 0.637357,0.509659 0.956013,1.300996 0.956013,2.374532 0,1.247032 -0.66943,2.244879 -2.009179,2.993099 -1.326743,0.748223 -3.1871972,1.122413 -5.5805381,1.122413 -1.690947,0 -3.498879,-0.276371 -5.4239582,-0.829408 -1.92507661,-0.553029 -3.6223718,-1.339196 -5.0921956,-2.358512 h -0.2733684 v 4.033862 c 1.7299675,0.639783 3.4277821,1.122145 5.09271239,1.447458 1.67793981,0.325316 3.56387821,0.487826 5.65805261,0.487826 1.9510901,0 3.6157543,-0.19512 4.9945273,-0.585494 1.39178,-0.390374 2.608291,-0.93277 3.648872,-1.626775 0.949532,-0.639781 1.684225,-1.420259 2.204517,-2.341975 0.5333,-0.921721 0.799951,-1.854353 0.799951,-2.797762 0,-1.735005 -0.546049,-3.084788 -1.638659,-4.049882 C 15.31374,84.861061 13.687823,84.13959 11.528614,83.662464 10.462018,83.434745 9.1608681,83.212715 7.6260102,82.995839 6.091149,82.778965 4.9077885,82.594714 4.0753225,82.442902 2.5014406,82.139274 1.4021998,81.699872 0.77784932,81.125152 0.1534988,80.550432 -0.15852749,79.759092 -0.15852749,78.75062 c 0,-1.127752 0.6240555,-2.049516 1.87275389,-2.765206 1.2617079,-0.71569 2.9268859,-1.073836 4.9950438,-1.073836 1.8860561,0 3.7266218,0.260332 5.5216268,0.78083 1.808011,0.509657 3.264659,1.155049 4.370276,1.9358 h 0.273368 V 73.821722 C 15.560806,73.344599 14.051639,72.943491 12.347686,72.618178 10.643732,72.292865 8.7710512,72.130352 6.7289073,72.130352 Z m 114.2948327,0.43925 v 2.862357 h 10.37973 v 21.356836 h 3.86333 V 75.431959 h 10.37973 v -2.862357 z" />
    <text
       xml:space="preserve"
       style="font-style:normal;font-weight:normal;font-size:35.878px;line-height:1.25;font-family:sans-serif;fill:url(#linearGradient13624);fill-opacity:1;stroke:none;stroke-width:0.070004;filter:url(#filter14003)"
       x="177.04764"
       y="107.04143"
       id="text11496"
       transform="matrix(0.93161132,0,0,1.073409,-11.979138,7.8484006)"><tspan
         sodipodi:role="line"
         id="tspan11494"
         style="fill:url(#linearGradient13624);fill-opacity:1;stroke-width:0.070004"
         x="177.04764"
         y="107.04143">A</tspan></text>
    <path
       id="path32020"
       style="font-size:23.8373px;line-height:1.25;fill:url(#radialGradient50878);fill-opacity:1;stroke-width:0.264583;filter:url(#filter30976)"
       d="M 1240.5137 235.6543 L 1240.5137 245.68945 L 1268.375 245.68945 L 1268.375 320.53711 L 1278.7441 320.53711 L 1278.7441 245.68945 L 1306.6055 245.68945 L 1306.6055 235.6543 L 1240.5137 235.6543 z M 725.67773 244.51172 L 725.67773 333.18359 L 739.11328 333.18359 L 739.11328 300.13281 L 752.54883 300.13281 C 759.78678 300.13281 765.78131 299.3778 770.53125 297.86914 C 775.28113 296.32079 779.39757 294.0179 782.88086 290.96094 C 785.68559 288.49945 787.85653 285.60249 789.39453 282.26758 C 790.97785 278.893 791.76953 275.24096 791.76953 271.31055 C 791.76953 266.14939 790.70622 261.88045 788.58008 258.50586 C 786.49915 255.13128 783.53656 252.31376 779.69141 250.05078 C 776.43431 248.14515 772.70312 246.75428 768.49609 245.88086 C 764.289 244.96772 759.15357 244.51172 753.0918 244.51172 L 725.67773 244.51172 z M 800.73438 258.82812 L 800.73438 364.65625 L 814.09766 364.65625 L 814.09766 322.58008 L 832.92773 322.58008 L 866.53711 364.65625 L 883.88281 364.65625 L 846.08789 318.38672 C 852.47706 315.78073 857.49409 311.91996 861.13867 306.80273 C 864.78319 301.63816 866.60547 295.24173 866.60547 287.61328 C 866.60547 281.97488 865.56975 277.332 863.5 273.68359 C 861.47529 269.98785 858.64066 266.93015 854.99609 264.51367 C 851.75648 262.38151 848.11197 260.91291 844.0625 260.10742 C 840.01304 259.25456 834.95123 258.82812 828.87695 258.82812 L 800.73438 258.82812 z M 1209.6875 273.20898 C 1203.8365 273.20898 1198.5039 274.14523 1193.6875 276.01562 C 1188.9067 277.88601 1184.821 280.59887 1181.4316 284.15625 C 1177.9353 287.82367 1175.2615 292.317 1173.4062 297.63477 C 1171.5511 302.95253 1170.623 308.98437 1170.623 315.73242 C 1170.623 322.84721 1171.5871 329.10108 1173.5137 334.49219 C 1175.4403 339.84663 1178.114 344.26596 1181.5391 347.75 C 1185.0354 351.30741 1189.1402 353.92824 1193.8496 355.61523 C 1198.5946 357.2656 1203.8552 358.0918 1209.6348 358.0918 C 1212.7031 358.0918 1215.5041 357.8357 1218.0371 357.32227 C 1220.6059 356.84549 1222.978 356.25735 1225.1543 355.56055 C 1227.723 354.71704 1229.7915 353.91077 1231.3613 353.14062 C 1232.9668 352.37045 1234.7526 351.5462 1236.7148 350.66602 L 1236.7148 337.90234 L 1235.9648 337.90234 C 1232.0761 341.49643 1227.903 344.19321 1223.4434 345.99023 C 1218.9838 347.78727 1214.2014 348.68555 1209.0996 348.68555 C 1205.3892 348.68555 1201.8575 348.04335 1198.5039 346.75977 C 1195.186 345.43948 1192.2787 343.42288 1189.7812 340.70898 C 1187.3909 338.10513 1185.4286 334.73014 1183.8945 330.58594 C 1182.3961 326.44175 1181.6465 321.49026 1181.6465 315.73242 C 1181.6465 310.2313 1182.324 305.39181 1183.6797 301.21094 C 1185.0711 296.9934 1186.9973 293.50837 1189.459 290.75781 C 1191.992 287.93389 1194.8653 285.86128 1198.0762 284.54102 C 1201.3228 283.18407 1204.9607 282.50781 1208.9922 282.50781 C 1213.9157 282.50781 1218.5366 283.36812 1222.8535 285.0918 C 1227.1705 286.8155 1231.5239 289.56632 1235.9121 293.34375 L 1236.7148 293.34375 L 1236.7148 280.41602 C 1231.506 277.73879 1226.7597 275.86822 1222.4785 274.80469 C 1218.233 273.74113 1213.9688 273.20898 1209.6875 273.20898 z M 1082.9688 299.86914 L 1082.9688 384.75195 L 1149.0605 384.75195 L 1149.0605 374.7168 L 1096.3086 374.7168 L 1096.3086 343.19336 L 1149.0605 343.19336 L 1149.0605 333.16016 L 1096.3086 333.16016 L 1096.3086 309.90234 L 1149.0605 309.90234 L 1149.0605 299.86914 L 1082.9688 299.86914 z M 932.63281 313.94531 C 923.53426 313.94531 916.38053 317.53953 911.16992 324.72656 C 905.99935 331.8681 903.41406 342.03321 903.41406 355.22461 C 903.41406 368.55244 906.05885 378.76527 911.34961 385.86133 C 916.64039 392.91192 923.73462 396.4375 932.63281 396.4375 C 941.53096 396.4375 948.60477 392.91192 953.85547 385.86133 C 959.14627 378.76527 961.79297 368.55244 961.79297 355.22461 C 961.79297 342.03321 959.18716 331.8681 953.97656 324.72656 C 948.76586 317.53953 941.65116 313.94531 932.63281 313.94531 z M 989.875 323.81836 L 989.875 332.69922 L 1029.3203 332.69922 L 1029.3203 381.54883 C 1029.3203 384.39698 1028.9862 386.90844 1028.3184 389.08203 C 1027.7339 391.25561 1026.3147 393.09082 1024.0605 394.58984 C 1021.89 396.05142 1018.5095 397.17591 1013.918 397.96289 C 1009.4097 398.74987 1003.3152 399.14453 995.63477 399.14453 C 990.37527 399.14453 985.23951 398.86291 980.23047 398.30078 C 975.22143 397.73864 971.00676 397.19458 967.58398 396.66992 L 966.20703 396.66992 L 966.20703 407.07031 C 970.71505 407.52001 976.30946 407.89549 982.98828 408.19531 C 989.66689 408.5326 995.00841 408.70117 999.01562 408.70117 C 1015.7957 408.70117 1029.1533 406.7146 1039.0879 402.74219 C 1049.1058 398.76977 1054.1152 393.11086 1054.1152 385.76562 L 1054.1152 323.81836 L 989.875 323.81836 z "
       transform="matrix(0.26458333,0,0,0.26458333,-0.97268783,56.743198)" />
  </g>
</svg>
