<?xml version="1.0" encoding="UTF-8" standalone="no"?>
<!-- Created with Inkscape (http://www.inkscape.org/) -->

<svg
   width="30.003674"
   height="29.999977"
   viewBox="0 0 7.9384718 7.9374939"
   version="1.1"
   id="svg5962"
   xml:space="preserve"
   inkscape:version="1.2-beta (1b65182ce9, 2022-04-05)"
   sodipodi:docname="github.svg"
   xmlns:inkscape="http://www.inkscape.org/namespaces/inkscape"
   xmlns:sodipodi="http://sodipodi.sourceforge.net/DTD/sodipodi-0.dtd"
   xmlns="http://www.w3.org/2000/svg"
   xmlns:svg="http://www.w3.org/2000/svg"><sodipodi:namedview
     id="namedview5964"
     pagecolor="#ffffff"
     bordercolor="#000000"
     borderopacity="0.25"
     inkscape:pageshadow="2"
     inkscape:pageopacity="0.0"
     inkscape:pagecheckerboard="0"
     inkscape:deskcolor="#d1d1d1"
     inkscape:document-units="px"
     showgrid="false"
     inkscape:zoom="0.46769781"
     inkscape:cx="27.795726"
     inkscape:cy="-40.624522"
     inkscape:window-width="1360"
     inkscape:window-height="705"
     inkscape:window-x="-8"
     inkscape:window-y="-8"
     inkscape:window-maximized="1"
     inkscape:current-layer="layer1" /><defs
     id="defs5959" /><g
     inkscape:label="Capa 1"
     inkscape:groupmode="layer"
     id="layer1"
     transform="translate(-97.668328,-159.33117)"><path
       d="m 100.32301,165.72247 c 0,0.0329 -0.0368,0.0591 -0.0832,0.0591 -0.0528,0.005 -0.0896,-0.0214 -0.0896,-0.0591 0,-0.0328 0.0368,-0.0591 0.0832,-0.0591 0.048,-0.004 0.0896,0.0214 0.0896,0.0591 z m -0.497651,-0.0739 c -0.01117,0.0329 0.02077,0.0706 0.06877,0.0804 0.04162,0.0164 0.08961,0 0.09921,-0.0328 0.0096,-0.0328 -0.02077,-0.0706 -0.06884,-0.0854 -0.04162,-0.0115 -0.08801,0.005 -0.09921,0.0377 z m 0.707271,-0.0279 c -0.0464,0.0115 -0.0784,0.0427 -0.0736,0.0804 0.004,0.0328 0.0464,0.0541 0.0944,0.0427 0.0464,-0.0115 0.0784,-0.0427 0.0736,-0.0755 -0.004,-0.0312 -0.048,-0.0525 -0.0944,-0.0476 z m 1.05292,-6.2895 c -2.219438,0 -3.917222,1.7283 -3.917222,4.0048 0,1.82021 1.116921,3.37783 2.712292,3.92602 0.20483,0.0377 0.27683,-0.0919 0.27683,-0.1986 0,-0.10176 -0.004,-0.66309 -0.004,-1.00777 0,0 -1.12013,0.2462 -1.355354,-0.4891 0,0 -0.18242,-0.47763 -0.444848,-0.60072 0,0 -0.366441,-0.25769 0.0256,-0.25277 0,0 0.398443,0.0328 0.617669,0.42346 0.350432,0.63354 0.937703,0.45136 1.166523,0.34305 0.0368,-0.26263 0.14082,-0.44481 0.25603,-0.55313 -0.89449,-0.10177 -1.796995,-0.23471 -1.796995,-1.81366 0,-0.45136 0.121613,-0.67786 0.377637,-0.96673 -0.04162,-0.10669 -0.177616,-0.54655 0.04162,-1.11446 0.334436,-0.10668 1.104128,0.44316 1.104128,0.44316 0.32004,-0.0919 0.66407,-0.13951 1.00491,-0.13951 0.34083,0 0.68488,0.0476 1.0049,0.13951 0,0 0.76969,-0.55148 1.10413,-0.44316 0.21922,0.56955 0.0832,1.00777 0.0416,1.11446 0.25603,0.29051 0.41285,0.51701 0.41285,0.96673 0,1.58387 -0.9425,1.71025 -1.837,1.81366 0.14721,0.12965 0.27203,0.37585 0.27203,0.76156 0,0.55313 -0.004,1.23756 -0.004,1.37214 0,0.10669 0.0736,0.23634 0.27683,0.1986 1.60017,-0.54491 2.68509,-2.10253 2.68509,-3.92274 0,-2.2765 -1.8002,-4.0048 -4.01963,-4.0048 z m -2.361853,5.66089 c -0.0208,0.0164 -0.016,0.0542 0.0112,0.0853 0.0256,0.0263 0.0624,0.0377 0.08321,0.0164 0.0208,-0.0164 0.016,-0.0541 -0.0112,-0.0853 -0.0256,-0.0263 -0.06241,-0.0377 -0.08321,-0.0164 z m -0.172818,-0.13295 c -0.0112,0.0214 0.0048,0.0476 0.03681,0.064 0.0256,0.0164 0.05761,0.0115 0.06881,-0.0115 0.0112,-0.0214 -0.0048,-0.0476 -0.03681,-0.0641 -0.032,-0.01 -0.05761,-0.005 -0.06881,0.0115 z m 0.518458,0.5843 c -0.02557,0.0214 -0.01597,0.0706 0.02077,0.10177 0.03682,0.0377 0.08321,0.0427 0.10401,0.0164 0.02077,-0.0214 0.01117,-0.0706 -0.02077,-0.10176 -0.03517,-0.0377 -0.08321,-0.0427 -0.10401,-0.0164 z m -0.182421,-0.24126 c -0.0256,0.0164 -0.0256,0.0591 0,0.0968 0.0256,0.0377 0.06881,0.0541 0.08961,0.0377 0.02557,-0.0214 0.02557,-0.064 0,-0.10176 -0.02242,-0.0377 -0.06401,-0.0541 -0.08961,-0.0328 z"
       id="path1092"
       style="fill:#f3f321;fill-opacity:1;stroke-width:0.016206" /></g></svg>
