<?xml version="1.0" encoding="UTF-8" standalone="no"?>
<!-- Created with Inkscape (http://www.inkscape.org/) -->

<svg
   width="30"
   height="30"
   viewBox="0 0 7.9374997 7.9374998"
   version="1.1"
   id="svg5"
   xml:space="preserve"
   inkscape:version="1.2-beta (1b65182ce9, 2022-04-05)"
   sodipodi:docname="linkedin.svg"
   xmlns:inkscape="http://www.inkscape.org/namespaces/inkscape"
   xmlns:sodipodi="http://sodipodi.sourceforge.net/DTD/sodipodi-0.dtd"
   xmlns="http://www.w3.org/2000/svg"
   xmlns:svg="http://www.w3.org/2000/svg"><sodipodi:namedview
     id="namedview7"
     pagecolor="#ffffff"
     bordercolor="#000000"
     borderopacity="0.25"
     inkscape:pageshadow="2"
     inkscape:pageopacity="0.0"
     inkscape:pagecheckerboard="0"
     inkscape:deskcolor="#d1d1d1"
     inkscape:document-units="px"
     showgrid="false"
     inkscape:zoom="0.46769781"
     inkscape:cx="-181.74128"
     inkscape:cy="147.53116"
     inkscape:window-width="1360"
     inkscape:window-height="705"
     inkscape:window-x="-8"
     inkscape:window-y="-8"
     inkscape:window-maximized="1"
     inkscape:current-layer="layer1" /><defs
     id="defs2" /><g
     inkscape:label="Capa 1"
     inkscape:groupmode="layer"
     id="layer1"
     transform="translate(-55.007621,-109.8819)"><path
       d="m 62.378157,109.8819 h -6.805343 c -0.311831,0 -0.565193,0.25691 -0.565193,0.57228 v 6.79294 c 0,0.31537 0.253362,0.57228 0.565193,0.57228 h 6.805343 c 0.31183,0 0.566964,-0.25691 0.566964,-0.57228 v -6.79294 c 0,-0.31537 -0.255134,-0.57228 -0.566964,-0.57228 z m -4.971568,6.80357 h -1.176451 v -3.78803 h 1.178223 v 3.78803 z m -0.588226,-4.30538 c -0.377385,0 -0.682128,-0.30652 -0.682128,-0.68213 0,-0.37562 0.304743,-0.68213 0.682128,-0.68213 0.375614,0 0.682129,0.30651 0.682129,0.68213 0,0.37738 -0.304743,0.68213 -0.682129,0.68213 z m 4.998144,4.30538 h -1.17645 v -1.84263 c 0,-0.4394 -0.0089,-1.00459 -0.611258,-1.00459 -0.613031,0 -0.706934,0.47837 -0.706934,0.9727 v 1.87452 h -1.176451 v -3.78803 h 1.128614 v 0.51736 h 0.01595 c 0.157686,-0.29766 0.54216,-0.61126 1.114439,-0.61126 1.190625,0 1.412095,0.78489 1.412095,1.80542 z"
       id="path17"
       style="fill:#f3f321;fill-opacity:1;stroke-width:0.0177177" /></g></svg>
