<?xml version="1.0" encoding="UTF-8" standalone="no"?>
<!-- Created with Inkscape (http://www.inkscape.org/) -->

<svg
   width="1400"
   height="960"
   viewBox="0 0 1400 960"
   version="1.1"
   id="svg51196"
   inkscape:version="1.1.2 (b8e25be833, 2022-02-05)"
   sodipodi:docname="project.svg"
   xmlns:inkscape="http://www.inkscape.org/namespaces/inkscape"
   xmlns:sodipodi="http://sodipodi.sourceforge.net/DTD/sodipodi-0.dtd"
   xmlns="http://www.w3.org/2000/svg"
   xmlns:svg="http://www.w3.org/2000/svg">
  <sodipodi:namedview
     id="namedview51198"
     pagecolor="#505050"
     bordercolor="#eeeeee"
     borderopacity="1"
     inkscape:pageshadow="0"
     inkscape:pageopacity="0"
     inkscape:pagecheckerboard="0"
     inkscape:document-units="px"
     showgrid="false"
     units="px"
     inkscape:zoom="0.64052329"
     inkscape:cx="868.82087"
     inkscape:cy="476.17316"
     inkscape:window-width="1280"
     inkscape:window-height="961"
     inkscape:window-x="-8"
     inkscape:window-y="-8"
     inkscape:window-maximized="1"
     inkscape:current-layer="layer3"
     width="1400px"
     viewbox-width="1400"
     viewbox-height="960" />
  <defs
     id="defs51193">
    <rect
       x="3584.5691"
       y="2179.468"
       width="646.68385"
       height="190.91747"
       id="rect106723" />
  </defs>
  <g
     inkscape:label="Capa1"
     inkscape:groupmode="layer"
     id="layer1" />
  <g
     inkscape:groupmode="layer"
     id="layer2"
     inkscape:label="Capa2" />
  <g
     inkscape:groupmode="layer"
     id="layer3"
     inkscape:label="Capa3">
    <g
       id="g134030"
       transform="translate(170.17336,7.8061174)">
      <path
         style="fill:none;stroke:#ffffff;stroke-width:1.32292;stroke-linecap:butt;stroke-linejoin:miter;stroke-miterlimit:4;stroke-dasharray:none;stroke-opacity:0.996271"
         d="m 237.96896,681.10927 c -9.37368,-9.39037 -4.6854,-26.50147 -5.84722,-39.89738 3.8502,-23.29182 -7.02819,-46.02607 -2.98431,-67.82019 1.17754,-5.4464 3.1036,-15.93432 9.42028,-18.15461 5.90181,-2.07446 12.28428,3.76278 17.07424,7.86697 2.92751,2.50838 5.29233,5.96036 6.47644,9.68248 6.16355,19.37447 3.30812,40.79975 1.76629,61.12066 -0.24839,3.27372 -0.92588,6.51429 -1.76629,9.68245 -1.19876,4.51905 3.06519,4.03697 -4.64964,13.21488 l -10.35053,12.31346 z"
         id="path45416"
         sodipodi:nodetypes="cccaaaaascc" />
      <path
         style="fill:none;stroke:#ffffff;stroke-width:1.32292;stroke-linecap:butt;stroke-linejoin:miter;stroke-miterlimit:4;stroke-dasharray:none;stroke-opacity:0.996271"
         d="m 262.39248,643.85851 c 2.09133,-6.25221 8.65891,-7.61638 10.42521,-16.69368 3.71861,-10.93972 21.70264,-60.52586 30.43339,-48.68716 l 10.67903,14.48053 c 2.76473,3.7489 1.45771,13.40854 -0.98458,18.47899 -4.3807,12.06502 -10.20581,15.55404 -13.54164,24.20622 -2.47549,6.4207 -4.69647,7.64428 -4.64907,20.15965 4.63748,29.96589 -16.6149,24.0571 -21.5408,33.4485 l -9.92809,19.08966 c -1.71821,3.30378 -12.76465,-2.42047 -18.55647,-5.2568 -5.50808,-2.69739 -17.21151,-7.78618 -14.89176,-10.93563 l 8.13126,-11.03952 23.75379,-29.75651 c 0,0 -0.12385,-5.12178 0.66973,-7.49425 z"
         id="path45418"
         sodipodi:nodetypes="acsscaccsascca" />
      <path
         style="fill:none;stroke:#ffffff;stroke-width:1.32292;stroke-linecap:butt;stroke-linejoin:miter;stroke-miterlimit:4;stroke-dasharray:none;stroke-opacity:0.996271"
         d="m 232.45697,689.00089 c 0,0 -5.08583,-0.0246 -5.08583,2.39601 -10.44171,21.69183 -10.1022,25.41035 -14.10903,30.13616 -6.34404,7.40977 -20.60169,24.02921 -30.3293,42.13453 -10.13365,18.86104 -15.61594,39.07777 -15.61594,39.07777 0,0 0.5888,13.31341 2.35509,18.75978 7.09069,21.07109 18.23631,22.91374 34.02632,27.58651 10.00904,3.02579 29.56054,7.51247 34.27068,7.51247 4.71015,0 3.02478,1.66875 3.61354,-1.35702 0.58876,-3.02578 3.17299,-18.20551 5.80675,-28.29553 3.82317,-11.40717 4.00079,-25.72493 10.14612,-36.80287 6.59647,-11.89119 16.63093,-21.8982 27.53493,-29.76417 10.22329,-7.37492 31.46715,-5.40226 38.51229,-13.58205 l 6.20753,-7.20727 c 1.5214,-1.76643 6.23331,-1.55034 -9.98253,-1.60138 -10.5835,-1.46888 -45.52897,5.78415 -45.92383,1.81546 v -17.54951 c 0,-9.68245 1.76631,-6.65671 0,-17.54947 -1.76634,-10.89281 -0.76138,-17.18268 -4.29398,-8.10533 -0.3273,0.84102 -4.09801,6.94467 -4.1081,7.67572 -0.0601,4.35281 7.20675,4.43291 5.73596,7.1165 -5.60802,1.20314 -38.71598,-11.92285 -43.8465,-19.39516 v 0"
         id="path45420"
         sodipodi:nodetypes="cccscccsscasssccssssccc" />
      <path
         style="fill:none;stroke:#ffffff;stroke-width:1.32292;stroke-linecap:butt;stroke-linejoin:miter;stroke-miterlimit:4;stroke-dasharray:none;stroke-opacity:0.996271"
         d="M 271.21764,711.3972 249.1555,748.28144"
         id="path45422"
         sodipodi:nodetypes="cc" />
      <path
         style="fill:none;stroke:#ffffff;stroke-width:1.32292;stroke-linecap:butt;stroke-linejoin:miter;stroke-miterlimit:4;stroke-dasharray:none;stroke-opacity:0.996271"
         d="m 167.31687,802.74536 c 15.30797,-8.47217 15.61442,-3.70049 22.37316,-7.86699 6.90764,-4.2583 11.79163,-11.27838 17.66303,-16.94433 3.54245,-3.41848 6.84556,-7.11408 10.59779,-10.28766 5.21428,-4.41018 10.41772,-9.05497 16.48551,-12.10309 12.52367,-6.29119 17.7445,-6.20183 40.08733,-12.24983"
         id="path45424"
         sodipodi:nodetypes="caaaac" />
      <path
         style="fill:none;stroke:#ffffff;stroke-width:1.32292;stroke-linecap:butt;stroke-linejoin:miter;stroke-miterlimit:4;stroke-dasharray:none;stroke-opacity:0.996271"
         d="m 241.50156,857.2093 c 21.19562,12.70823 37.00891,5.73818 55.548,4.55416 16.53358,-1.05594 48.66748,-10.33359 48.66748,-10.33359 0,0 4.00794,10.13026 7.5218,14.08688 4.60698,5.18747 17.00188,11.77939 17.00188,11.77939 29.94032,14.21825 70.26416,22.87917 70.26416,22.87917 -4.12135,-3.63091 -3.72528,-15.98258 0,-22.39075 2.97152,-5.11157 6.47644,-7.86703 15.30794,-8.47216 17.45749,2.46912 23.23979,-6.97051 25.20136,-8.00584 12.13024,-8.85569 29.23452,-21.32428 43.09564,-19.22612 19.77546,5.26287 15.86947,-26.16387 20.10555,-44.00376 4.21438,-15.61892 7.33829,-25.88437 -0.0874,-38.90247 0,0 0,-4.23606 0,0 5.93635,13.97862 -18.94491,27.1699 -28.84967,6.6567 -6.90888,-14.78512 3.43064,-20.16911 8.6716,-29.26623 5.34404,-9.27606 -4.80486,-13.69525 -6.30564,-20.78728 -1.58186,-7.47527 -1.91726,-15.17256 -2.8081,-22.76745 -0.70738,-6.0308 -1.25999,-12.08062 -2.01442,-18.10541 -0.67689,-5.40568 -2.25355,-16.18598 -2.25355,-16.18598 -1.44474,8.69064 -13.00027,12.55018 -15.30802,16.94433 -0.76234,18.18713 -21.66603,29.00735 -24.19723,38.99812 0,0 -2.46516,16.11667 -1.99534,24.19672 0.37081,6.37727 2.10569,12.61546 3.77665,18.76925 2.38178,8.77154 6.51935,20.30706 8.87428,25.75344 2.35518,5.44639 5.53734,14.53226 4.12141,21.78558 -1.39177,7.12959 -10.09071,11.09202 -11.77534,18.15464 -0.9051,3.7945 -0.54595,4.39106 1.22034,11.65291 3.75103,8.96562 9.70038,18.31687 5.72926,26.33301 -2.74458,5.54025 -7.2342,7.42627 -16.65456,7.42627 -9.42022,0 -12.07802,-2.47025 -15.02326,-7.28746 -1.58241,-2.58819 -0.89048,-6.27651 0.0723,-9.16829 1.38009,-4.14519 5.66576,-6.63491 7.75292,-10.4554 1.33131,-2.43693 3.81329,-4.65654 5.12454,-7.40235 1.99799,-4.18391 2.56821,-8.92686 2.35821,-12.309 -8.32333,-26.59243 -14.89018,-51.78446 -18.37303,-78.43728 -1.12709,-8.62512 -0.62695,-17.39402 -0.78121,-26.09503 -0.29414,-16.59157 3.71731,-33.70247 -0.27508,-49.78216 -2.84771,-11.46941 -16.38385,-31.2688 -16.38385,-31.2688 0,0 -2.35713,1.82755 -3.36011,2.93043 -1.47694,1.62406 -2.53613,3.85141 -3.85462,5.36417 -27.09935,12.48519 -35.90113,24.54979 -51.19398,39.97961 -18.87967,19.04878 -12.96106,26.75926 -49.17313,64.02429 -10.7871,6.36903 -24.96577,4.90778 -35.59023,11.55897 -10.57495,6.6202 -19.85453,16.13717 -26.18982,27.06701 -8.21052,14.16503 -13.84636,47.36701 -13.84636,47.36701 z"
         id="path45426"
         sodipodi:nodetypes="cacascacccccccsaaacccaacaacasaasscaaacacacaacc" />
      <path
         style="fill:none;stroke:#ffffff;stroke-width:1.32292;stroke-linecap:butt;stroke-linejoin:miter;stroke-miterlimit:4;stroke-dasharray:none;stroke-opacity:0.996271"
         d="m 428.7295,636.32781 c -5.15724,-10.72676 -14.56916,-20.77992 -14.31444,-32.74043 0.45178,-21.21283 13.93843,-41.17283 27.83552,-56.87171 10.88681,-12.29831 25.19286,-22.06432 41.11208,-26.52294 25.31606,-6.82445 51.89499,2.02072 62.02375,28.94354 1.76623,5.44639 4.95418,21.80138 2.01029,35.71992 -5.20183,16.20221 -4.67278,17.97979 -11.3649,33.76273 -2.50634,5.91107 -4.51134,9.86031 -8.73005,15.93898 l -8.45877,12.18807 2.91178,-7.39239 c 4.96459,-12.60401 8.98274,-15.09789 10.59776,-23.60102 2.3538,-12.39279 2.6652,-24.47876 -1.72583,-37.83772 -2.52344,-13.92864 -18.55481,-13.11614 -28.91062,-12.08485 -19.56611,1.94852 -41.98951,14.45756 -49.33524,33.18578 -7.50281,19.12869 -0.20816,36.09052 13.44102,60.30793 2.94384,4.84124 5.88769,12.70827 5.88769,12.70827 0,0 -0.58875,2.42059 -0.58875,10.89276 0,8.47217 1.1775,25.41649 1.1775,25.41649 v 0 c 0,0 -4.19765,22.14958 -3.23071,33.24041 0.8926,10.2382 5.01613,19.9223 8.24276,29.65255 1.58768,4.78785 3.5835,9.06769 5.45821,14.1002 2.5135,6.74726 3.26376,11.16128 3.35825,15.24913 0.80434,13.29656 -6.96855,9.66164 -12.06222,22.73709 -2.76994,13.16117 14.71868,29.98849 5.8877,39.94027 -6.88597,7.75991 -25.39968,7.21413 -30.61592,-1.8155 -4.21327,-7.29345 10.59783,-22.99585 10.59783,-22.99585 v 0 c 0,0 4.75228,-7.25506 4.7543,-15.09275 10e-4,-4.90108 -2.73777,-8.98279 -4.00707,-13.50452 -2.58658,-9.21435 -7.3521,-27.76034 -7.3521,-27.76034 0,0 -6.30504,-29.80418 -7.62616,-44.95396 -0.83923,-9.62376 -0.17351,-28.98631 -0.17351,-28.98631 0,0 3.19371,-26.95305 0.0306,-39.82399 -2.8889,-11.75487 -11.60439,-21.12944 -16.8307,-31.99984 z"
         id="path45480"
         sodipodi:nodetypes="aaacccsscsacaaccsccaasccaaccsacacaa" />
      <path
         style="fill:none;stroke:#ffffff;stroke-width:1.32292;stroke-linecap:butt;stroke-linejoin:miter;stroke-miterlimit:4;stroke-dasharray:none;stroke-opacity:0.996271"
         d="m 510.56817,658.71856 8.27481,-11.97259"
         id="path45482"
         sodipodi:nodetypes="cc" />
      <path
         style="fill:none;stroke:#ffffff;stroke-width:1.32292;stroke-linecap:butt;stroke-linejoin:miter;stroke-miterlimit:4;stroke-dasharray:none;stroke-opacity:0.996271"
         d="m 544.12795,759.17421 c 2.35505,-28.44224 2.35505,-26.62682 3.53258,-29.65255 1.17753,-3.02578 8.86548,-18.68508 7.65387,-28.44228 -2.0368,-16.40267 -10.94798,-41.52595 -24.13941,-42.966 -4.62672,-0.26475 -8.2427,11.49794 -8.2427,11.49794 v 0 c 0,0 -3.91057,6.16195 -5.17749,9.57217 -1.06418,2.86449 -1.43128,5.95685 -1.97135,8.9722 -0.29439,1.64367 -0.69033,4.96334 -0.69033,4.96334"
         id="path45484"
         sodipodi:nodetypes="csaccaaac" />
      <path
         style="fill:none;stroke:#ffffff;stroke-width:1.32292;stroke-linecap:butt;stroke-linejoin:miter;stroke-miterlimit:4;stroke-dasharray:none;stroke-opacity:0.996271"
         d="m 524.10982,842.08044 c 2.06767,5.00902 3.48603,7.97766 4.15597,12.24516 0.88312,5.62532 3.99707,9.18727 -0.26109,17.09184 -5.68941,12.28374 -13.46362,14.62683 -23.60106,19.36862 -8.85758,3.77719 -18.07781,6.98188 -27.55145,8.51584 -4.21439,0.68238 -8.53131,0.16872 -12.79665,0.26822 -7.85065,0.18315 -23.55066,0.60519 -23.55066,0.60519"
         id="path45486"
         sodipodi:nodetypes="caccaac" />
      <path
         style="fill:none;stroke:#ffffff;stroke-width:1.32292;stroke-linecap:butt;stroke-linejoin:miter;stroke-miterlimit:4;stroke-dasharray:none;stroke-opacity:0.996271"
         d="m 440.50488,900.17531 -12.36413,7.26184 c -4.71529,2.76944 8.91043,13.9898 27.08331,18.15465 l 87.13753,19.97011 202.22967,-80.44172 20.52696,-134.63576 c 0,0 1.12748,-6.40453 -0.89096,-8.22372 -0.97486,-0.87865 -1.17303,-1.16446 -1.93099,-1.33371 -3.02514,-0.67553 -3.48022,-0.14441 -9.16306,1.55596 l -178.54865,53.42357 c 0,0 -6.46804,1.77777 -9.5796,3.0273 -2.05925,0.82696 -4.62292,1.15295 -5.98164,2.94456 -3.19389,4.21147 -3.09264,15.69691 -3.09264,15.69691 L 541.44829,937.34037 426.9632,907.43715"
         id="path45488"
         sodipodi:nodetypes="csscccsascaaccc" />
      <path
         style="fill:none;stroke:#ffffff;stroke-width:1.32292;stroke-linecap:butt;stroke-linejoin:miter;stroke-miterlimit:4;stroke-dasharray:none;stroke-opacity:0.996271"
         d="m 547.71257,879.11839 -43.86441,23.48392 c -0.5225,0.27973 40.52238,5.86425 40.52238,5.86425"
         id="path45490"
         sodipodi:nodetypes="csc" />
      <path
         style="fill:none;stroke:#ffffff;stroke-width:1.32292;stroke-linecap:butt;stroke-linejoin:miter;stroke-miterlimit:4;stroke-dasharray:none;stroke-opacity:0.996271"
         d="m 460.41845,592.38564 20.47158,1.71162 c 14.78349,2.36495 28.28194,10.02386 43.22553,8.13027 6.2405,-0.17827 22.36121,0.60561 22.06508,2.56745 l -2.9855,3.26801 c -4.94795,5.4162 -5.42531,15.32505 -11.90164,18.62882 -5.48142,2.79623 -13.26659,2.26526 -18.31818,-1.28371 -3.56755,-2.50637 -5.51258,-12.05493 -5.51258,-12.05493 l -0.83254,-5.99074 c 0,0 -1.24902,-6.41861 -4.99592,-1.71161 -3.7469,4.70699 -4.54491,6.98335 -7.4938,9.84189 -3.19223,3.09442 -6.59829,6.48394 -10.82437,7.70235 -4.73054,1.36385 -10.21409,1.13824 -14.71484,-0.8861 -3.47001,-1.56073 -6.96196,-4.41672 -8.18282,-8.09996 -1.70981,-5.15837 3.01333,-10.76459 2.34024,-16.16969 -0.25295,-2.03126 -1.9239,-2.65831 -2.34024,-5.65367"
         id="path45492"
         sodipodi:nodetypes="ccccsaaccsaaaaac" />
      <path
         style="fill:none;stroke:#ffffff;stroke-width:1.32292;stroke-linecap:butt;stroke-linejoin:miter;stroke-miterlimit:4;stroke-dasharray:none;stroke-opacity:0.996271"
         d="m 221.01204,705.17287 c 0,0 7.44222,7.37137 11.90821,9.92669 8.56667,4.90162 18.22451,9.02193 27.78583,9.9267 0.82152,0.0611 2.41617,-0.53179 2.41617,-0.53179"
         id="path58515"
         sodipodi:nodetypes="cacc" />
      <path
         style="fill:none;stroke:#ffffff;stroke-width:1.32292;stroke-linecap:butt;stroke-linejoin:miter;stroke-miterlimit:4;stroke-dasharray:none;stroke-opacity:0.996271"
         d="m 471.70954,672.03197 c 10.33265,7.19218 11.76867,6.09504 23.55061,3.63092"
         id="path72243"
         sodipodi:nodetypes="cc" />
      <path
         style="fill:none;stroke:#ffffff;stroke-width:1.32292;stroke-linecap:butt;stroke-linejoin:miter;stroke-miterlimit:4;stroke-dasharray:none;stroke-opacity:0.996271"
         d="m 460.41846,592.38564 -5.26507,-1.1649"
         id="path76587" />
      <path
         style="fill:none;stroke:#ffffff;stroke-width:1.32292;stroke-linecap:butt;stroke-linejoin:miter;stroke-miterlimit:4;stroke-dasharray:none;stroke-opacity:0.996271"
         d="m 357.07209,782.58136 -10.62102,41.42379 c 0,0 -1.85174,13.64715 -1.66977,20.50271 0.0618,2.32861 -0.37833,2.79391 0.93574,6.92201"
         id="path45651"
         sodipodi:nodetypes="ccac" />
      <path
         style="fill:none;stroke:#ffffff;stroke-width:1.32292;stroke-linecap:butt;stroke-linejoin:miter;stroke-miterlimit:4;stroke-dasharray:none;stroke-opacity:0.996271"
         d="m 413.43651,719.08669 c 2.65211,6.49806 5.28344,23.52657 4.30235,35.36314 -1.05601,12.74059 -9.31073,24.0209 -10.82883,36.71215 -1.47574,12.33707 -3.19831,25.92469 1.80273,37.24352 5.68302,12.86237 18.87339,20.69319 29.66316,29.45072 5.41347,4.39386 17.43691,11.45618 17.43691,11.45618"
         id="path45649"
         sodipodi:nodetypes="caaaac" />
      <path
         style="fill:none;stroke:#ffffff;stroke-width:1.32292;stroke-linecap:butt;stroke-linejoin:miter;stroke-miterlimit:4;stroke-dasharray:none;stroke-opacity:0.996271"
         d="m 508.22723,751.32288 c -7.01329,13.71555 -1.96419,31.31235 -11.46759,37.59873"
         id="path45645"
         sodipodi:nodetypes="cc" />
      <path
         style="fill:none;stroke:#ffffff;stroke-width:1.32292;stroke-linecap:butt;stroke-linejoin:miter;stroke-miterlimit:4;stroke-dasharray:none;stroke-opacity:0.996271"
         d="m 503.53133,769.09866 c 8.00636,10.10436 11.48441,17.20375 20.52201,19.82295 7.96665,2.30882 24.3147,-5.18458 24.3147,-5.18458"
         id="path45647"
         sodipodi:nodetypes="cac" />
      <path
         style="fill:none;stroke:#ffffff;stroke-width:1.32292;stroke-linecap:butt;stroke-linejoin:miter;stroke-miterlimit:4;stroke-dasharray:none;stroke-opacity:0.996271"
         d="m 550.65808,850.47962 -21.20654,11.4164"
         id="path84447"
         sodipodi:nodetypes="cc" />
      <path
         style="fill:none;stroke:#ffffff;stroke-width:1.32292;stroke-linecap:butt;stroke-linejoin:miter;stroke-miterlimit:4;stroke-dasharray:none;stroke-opacity:0.996271"
         d="m 474.06458,823.3206 c 22.70954,-2.96298 30.84507,7.89724 50.04523,18.75983"
         id="path96525"
         sodipodi:nodetypes="cc" />
      <path
         style="fill:none;stroke:#ffffff;stroke-width:0.264583px;stroke-linecap:butt;stroke-linejoin:miter;stroke-opacity:0.996271"
         d="m 511.64419,738.78854 v 0"
         id="path97077" />
      <path
         style="fill:none;stroke:#ffffff;stroke-width:1.32292;stroke-linecap:butt;stroke-linejoin:miter;stroke-miterlimit:4;stroke-dasharray:none;stroke-opacity:0.996271"
         d="m 508.22723,751.32288 7.40828,-2.75682"
         id="path98157"
         sodipodi:nodetypes="cc" />
      <path
         style="fill:none;stroke:#ffffff;stroke-width:2.64583;stroke-linecap:butt;stroke-linejoin:miter;stroke-miterlimit:4;stroke-dasharray:none;stroke-opacity:0.996271"
         d="m 464.64432,822.11033 9.42025,1.21027"
         id="path99612" />
      <path
         style="fill:none;stroke:#ffffff;stroke-width:1.32292;stroke-linecap:butt;stroke-linejoin:miter;stroke-miterlimit:4;stroke-dasharray:none;stroke-opacity:0.996271"
         d="m 454.42118,593.85296 6.95597,1.25343"
         id="path100262" />
      <path
         style="fill:none;stroke:#ffffff;stroke-width:1.32292;stroke-linecap:butt;stroke-linejoin:miter;stroke-miterlimit:4;stroke-dasharray:none;stroke-opacity:0.996271"
         d="m 546.18064,604.79498 -12.68613,-2.583"
         id="path76587-7"
         sodipodi:nodetypes="cc" />
      <path
         style="fill:none;stroke:#ffffff;stroke-width:1.32292;stroke-linecap:butt;stroke-linejoin:miter;stroke-miterlimit:4;stroke-dasharray:none;stroke-opacity:0.996271"
         d="m 533.49451,604.78229 11.03693,2.10673"
         id="path100262-5"
         sodipodi:nodetypes="cc" />
    </g>
    <g
       id="g134160">
      <path
         style="fill:#dddd37;fill-opacity:0.722892;stroke:#151010;stroke-width:0.264583px;stroke-linecap:butt;stroke-linejoin:miter;stroke-opacity:1"
         d="m 782.05349,886.43904 c 6.08956,-46.35537 49.53778,-24.73568 65.10743,-40.69766 -1.41929,-5.77134 -6.32505,-10.30744 -9.56854,-15.35768 5.55498,2.11162 11.03969,3.93293 16.69466,6.11797 5.77172,2.12036 11.32339,3.56061 17.12167,3.74635 l 8.91686,-0.10325 c -5.45799,7.85857 -10.38161,16.20987 -15.87469,24.05044 -4.08474,5.84559 -8.46176,11.40568 -12.89855,16.90574 0.085,-4.24682 0.15398,-5.18699 0.45521,-9.41205 0.34681,-2.65326 0.83679,-7.82461 -0.6728,-7.21212 0,0 -3.90554,1.83786 -5.95385,2.41576 -5.05845,1.42746 -10.30395,1.92276 -15.49663,2.55601 -11.83854,1.44389 -24.16131,-0.60422 -35.65119,2.8293 -2.43766,0.72826 -4.9605,1.76534 -6.80557,3.69354 -2.61794,2.73611 -5.37401,10.46765 -5.37401,10.46765 z"
         id="path45821"
         sodipodi:nodetypes="cccccccccsaaaac" />
      <text
         xml:space="preserve"
         transform="matrix(0.27575203,-0.08166756,0.08227612,0.35460669,-435.27432,316.66137)"
         id="text106721"
         style="font-size:133.333px;line-height:1.25;font-family:'Agency FB';-inkscape-font-specification:'Agency FB, Normal';font-variant-ligatures:none;white-space:pre;shape-inside:url(#rect106723);fill:#ddddcb;fill-opacity:1;stroke-width:0.818463"><tspan
           x="3584.5684"
           y="2304.0289"
           id="tspan134213"><tspan
   style="font-size:98.0219px"
   id="tspan134209">SELECT   A</tspan> <tspan
   style="font-size:98.0219px"
   id="tspan134211"> PROJECT
</tspan></tspan></text>
    </g>
  </g>
  <g
     inkscape:groupmode="layer"
     id="layer4"
     inkscape:label="Capa4">
    <path
       style="fill:none;stroke:#fbf7f7;stroke-width:0.79375;stroke-linecap:butt;stroke-linejoin:miter;stroke-miterlimit:4;stroke-dasharray:none;stroke-opacity:1"
       d="m 101.27183,99.181666 c -2.212358,-9.053013 -3.259755,-20.098792 0.45461,-28.520771 9.14871,-17.747852 27.82122,-28.949229 50.00792,-29.26159 12.36504,-0.02538 25.1475,3.919334 35.00554,10.0008 12.47667,9.290298 19.61145,19.101591 20.00317,32.595189 0,0 6.48421,-2.873396 10.00159,-3.704008 22.5185,-6.299941 45.27434,-2.620764 60.46415,11.112 6.04843,5.619969 9.01373,13.360764 10.45612,20.742384 0.62673,17.42035 -7.3459,34.46154 -23.64012,42.22557 -6.83217,3.17982 -15.00234,5.18559 -22.73087,5.18559 -7.72844,0 -155.024488,-0.37038 -155.024488,-0.37038 H 85.81485 c -7.273881,0 -15.601828,-1.66004 -21.821651,-5.18561 -32.121516,-24.808 11.325459,-57.536646 37.278631,-54.819174 z"
       id="path50204"
       sodipodi:nodetypes="cccccccccscscc" />
    <path
       style="fill:none;stroke:#fbf7f7;stroke-width:0.793747;stroke-linecap:butt;stroke-linejoin:miter;stroke-miterlimit:4;stroke-dasharray:none;stroke-opacity:1"
       d="m 428.27375,161.63408 c -1.77158,-7.37837 -2.6103,-16.38087 0.36403,-23.24492 7.32597,-14.46481 22.27826,-23.59412 40.04459,-23.8487 9.90149,-0.0207 20.13723,3.19432 28.0312,8.15082 9.99089,7.57175 15.70416,15.56813 16.01784,26.56564 0,0 5.19232,-2.34187 8.00892,-3.01883 18.03202,-5.13456 36.2541,-2.13597 48.41756,9.05647 4.84338,4.58037 7.21788,10.88926 8.3729,16.9054 0.50186,14.19789 -5.88234,28.08675 -18.93018,34.41457 -5.47096,2.5916 -12.01335,4.22635 -18.20208,4.22635 -6.18866,0 -124.13816,-0.30188 -124.13816,-0.30188 h -0.36403 c -5.82466,0 -12.49339,-1.35296 -17.47401,-4.22635 -25.72178,-20.21895 9.06903,-46.89336 29.85142,-44.67857 z"
       id="path50204-8"
       sodipodi:nodetypes="cccccccccscscc" />
    <path
       style="fill:none;stroke:#fbf7f7;stroke-width:0.793747;stroke-linecap:butt;stroke-linejoin:miter;stroke-miterlimit:4;stroke-dasharray:none;stroke-opacity:1"
       d="m 795.49497,85.43493 c -1.91851,-8.096073 -2.82678,-17.97427 0.39422,-25.506011 7.93355,-15.871836 24.12591,-25.889183 43.3657,-26.168527 10.72268,-0.0227 21.80732,3.505044 30.35598,8.943678 10.81948,8.308279 17.00659,17.082478 17.34628,29.149749 0,0 5.62296,-2.569666 8.67314,-3.312478 19.52752,-5.634015 39.26084,-2.343741 52.43309,9.937416 5.24506,5.025915 7.8165,11.948481 9.06731,18.549836 0.54348,15.579027 -6.3702,30.818887 -20.50017,37.762227 -5.92469,2.8437 -13.00966,4.63746 -19.71166,4.63746 -6.70192,0 -134.4336,-0.33124 -134.4336,-0.33124 h -0.39422 c -6.30774,0 -13.52954,-1.48457 -18.92323,-4.63746 -27.85502,-22.1857 9.82118,-51.454874 32.32716,-49.02465 z"
       id="path50204-5"
       sodipodi:nodetypes="cccccccccscscc" />
    <path
       style="fill:none;stroke:#fbf7f7;stroke-width:0.793749;stroke-linecap:butt;stroke-linejoin:miter;stroke-miterlimit:4;stroke-dasharray:none;stroke-opacity:1"
       d="m 1111.8165,136.93194 c -1.2133,-6.66065 -1.7877,-14.78746 0.2493,-20.98384 5.0172,-13.05778 15.2572,-21.299068 27.4244,-21.528884 6.7809,-0.01867 13.7908,2.883606 19.197,7.357974 6.8422,6.83523 10.7549,14.05378 10.9697,23.98154 0,0 3.556,-2.11406 5.4849,-2.72518 12.3492,-4.63511 24.8285,-1.92819 33.1586,8.17553 3.3169,4.13483 4.9431,9.83004 5.7341,15.26098 0.3437,12.81683 -4.0285,25.35469 -12.9642,31.06699 -3.7468,2.33952 -8.2273,3.81525 -12.4657,3.81525 -4.2382,0 -85.0154,-0.27251 -85.0154,-0.27251 h -0.2493 c -3.989,0 -8.5561,-1.22136 -11.967,-3.81525 -17.6155,-18.25221 6.2109,-42.33195 20.4436,-40.3326 z"
       id="path50204-1"
       sodipodi:nodetypes="cccccccccscscc" />
  </g>
</svg>
